<?xml version="1.0" encoding="UTF-8" standalone="no"?>
<svg
   xmlns:dc="http://purl.org/dc/elements/1.1/"
   xmlns:cc="http://creativecommons.org/ns#"
   xmlns:rdf="http://www.w3.org/1999/02/22-rdf-syntax-ns#"
   xmlns:svg="http://www.w3.org/2000/svg"
   xmlns="http://www.w3.org/2000/svg"
   xmlns:sodipodi="http://sodipodi.sourceforge.net/DTD/sodipodi-0.dtd"
   xmlns:inkscape="http://www.inkscape.org/namespaces/inkscape"
   enable-background="new 0 0 24 24"
   height="230.82462"
   viewBox="0 0 10.506565 10.819904"
   width="224.14006"
   version="1.1"
   id="svg193"
   sodipodi:docname="logopro.svg"
   inkscape:version="1.0 (4035a4fb49, 2020-05-01)"
   inkscape:export-filename="C:\Users\Ambro\Downloads\logoprolight.png"
   inkscape:export-xdpi="96"
   inkscape:export-ydpi="96">
  <metadata
     id="metadata199">
    <rdf:RDF>
      <cc:Work
         rdf:about="">
        <dc:format>image/svg+xml</dc:format>
        <dc:type
           rdf:resource="http://purl.org/dc/dcmitype/StillImage" />
        <dc:title></dc:title>
      </cc:Work>
    </rdf:RDF>
  </metadata>
  <defs
     id="defs197" />
  <sodipodi:namedview
     fit-margin-bottom="0"
     fit-margin-right="0"
     fit-margin-left="0"
     fit-margin-top="0"
     pagecolor="#ffffff"
     bordercolor="#666666"
     borderopacity="1"
     objecttolerance="10"
     gridtolerance="10"
     guidetolerance="10"
     inkscape:pageopacity="0"
     inkscape:pageshadow="2"
     inkscape:window-width="1368"
     inkscape:window-height="850"
     id="namedview195"
     showgrid="false"
     inkscape:document-rotation="0"
     inkscape:zoom="1.767767"
     inkscape:cx="169.51423"
     inkscape:cy="62.181649"
     inkscape:window-x="-6"
     inkscape:window-y="-6"
     inkscape:window-maximized="1"
     inkscape:current-layer="g910"
     inkscape:snap-object-midpoints="false"
     inkscape:snap-center="false" />
  <g
     id="g218"
     transform="matrix(0.4109463,0,0,0.4109463,-9.5333283e-4,0.95834258)">
    <g
       id="g165"
       fill="#e91e63">
      <path
         id="path159"
         d="m 6.6,16.48 1.23,3.66 C 6.06,20.71 4.84,21.08 4.75,21.07 3.97,21.04 3.21,20.53 2.95,19.75 2.62,18.73 3.16,17.63 4.18,17.29 Z" />
      <path
         id="path161"
         d="m 15.31,13.58 1.24,3.69 c -1.62,0.54 -3.37,1.12 -5.02,1.66 L 10.3,15.25 Z" />
      <path
         id="path163"
         d="m 24,13.38 c 0,0.82 -0.51,1.58 -1.32,1.84 0,0 -0.96,0.32 -2.44,0.81 l -1.23,-3.68 2.43,-0.81 c 1.02,-0.33 2.13,0.21 2.46,1.23 0.07,0.2 0.1,0.41 0.1,0.61 z" />
    </g>
    <path
       id="path167"
       fill="#00bcd4"
       d="m 3.75,7.97 1.23,3.66 C 3.21,12.2 1.99,12.57 1.9,12.56 1.12,12.53 0.36,12.02 0.1,11.24 -0.23,10.22 0.3,9.12 1.33,8.78 Z" />
    <path
       id="path169"
       fill="#00bcd4"
       d="m 12.45,5.07 1.24,3.69 C 12.08,9.3 10.33,9.88 8.68,10.42 L 7.45,6.74 Z" />
    <path
       id="path171"
       fill="#00bcd4"
       d="m 19.81,6.72 c 0,0 -0.95,0.32 -2.42,0.81 L 16.15,3.84 18.58,3.03 c 1.02,-0.33 2.13,0.21 2.47,1.23 0.32,1.02 -0.21,2.13 -1.24,2.46 z" />
    <path
       id="path173"
       fill="#689f38"
       d="M 17.39,7.53 C 16.36,7.87 15.08,8.3 13.69,8.76 L 12.45,5.07 16.15,3.84 Z" />
    <path
       id="path175"
       fill="#ffc107"
       d="m 16.15,3.84 -3.7,1.23 -0.84,-2.51 c -0.32,-1.03 0.21,-2.13 1.23,-2.46 1.03,-0.33 2.14,0.21 2.47,1.22 z" />
    <path
       id="path177"
       fill="#b71c1c"
       d="m 20.24,16.03 c -1.03,0.35 -2.31,0.78 -3.69,1.24 l -1.24,-3.69 3.7,-1.23 z" />
    <path
       id="path179"
       fill="#ffc107"
       d="m 19.01,12.35 -3.7,1.23 -1.62,-4.82 c 1.39,-0.46 2.67,-0.89 3.7,-1.23 z" />
    <path
       id="path181"
       fill="#ffc107"
       d="m 19.85,21 c -1.14,0.33 -2.14,-0.32 -2.46,-1.22 l -0.84,-2.51 c 1.38,-0.46 2.66,-0.89 3.69,-1.24 l 0.84,2.51 c 0.33,1.03 -0.2,2.13 -1.23,2.46 z" />
    <path
       id="path183"
       fill="#009688"
       d="m 8.68,10.42 c -1.35,0.44 -2.63,0.86 -3.7,1.21 L 3.75,7.97 7.45,6.74 Z" />
    <path
       id="path185"
       fill="#4caf50"
       d="M 7.45,6.74 3.75,7.97 2.91,5.46 C 2.59,4.44 3.12,3.33 4.14,3 5.17,2.67 6.28,3.21 6.61,4.23 Z" />
    <path
       id="path187"
       fill="#880e4f"
       d="m 11.53,18.93 c -1.35,0.44 -2.62,0.86 -3.7,1.21 L 6.6,16.48 10.3,15.25 Z" />
    <path
       id="path189"
       fill="#4caf50"
       d="M 10.3,15.25 6.6,16.48 4.98,11.63 c 1.07,-0.35 2.35,-0.77 3.7,-1.21 z" />
    <path
       id="path191"
       fill="#4caf50"
       d="M 11.14,23.91 C 10,24.24 9,23.59 8.68,22.69 L 7.83,20.14 c 1.08,-0.35 2.35,-0.77 3.7,-1.21 l 0.84,2.52 c 0.33,1.03 -0.2,2.13 -1.23,2.46 z" />
  </g>
  <g
     id="g896"
     transform="translate(2.743918,-5.6617644)"
     style="stroke-width:0.999984;stroke-miterlimit:4;stroke-dasharray:none">
    <g
       id="g910"
       transform="translate(-0.76875,0.3)"
       style="stroke-width:0.999984;stroke-miterlimit:4;stroke-dasharray:none">
      <g
         id="g877">
        <path
           inkscape:export-ydpi="96"
           inkscape:export-xdpi="96"
           id="path62"
           d="M 8.340406,7.0229084 C 8.025541,7.5008906 7.4233746,7.7206006 6.8599916,7.6944416 a 0.90339682,0.90339682 0 0 1 -0.116198,-0.02116 0.03803776,0.03803776 0 0 0 -0.03575,0.01964 c -0.117728,0.190097 -0.498729,0.335012 -0.758385,0.395745 a 1.9347388,1.9347388 0 0 0 0.327105,-0.556359 0.03371529,0.03371529 0 0 0 -0.02055,-0.0426 v 0 a 0.64059048,0.64059048 0 0 1 -0.136542,-0.05594 C 5.7465536,7.2514486 5.4075476,7.0175052 5.4410606,6.542097 A 1.0866697,1.0866697 0 0 1 5.9117136,5.7538297 2.2805367,2.2805367 0 0 1 7.6089206,5.4005341 C 8.365029,5.5641205 8.806307,6.3173163 8.340354,7.0229789 Z"
           style="fill:#8b0e51;fill-opacity:1;stroke:none;stroke-width:0.999984;stroke-miterlimit:4;stroke-dasharray:none" />
        <text
           transform="rotate(-11.085347)"
           id="text891"
           y="8.1417294"
           x="4.7138062"
           style="font-style:normal;font-variant:normal;font-weight:normal;font-stretch:normal;font-size:1.5px;line-height:1.25;font-family:'MV Boli';-inkscape-font-specification:'MV Boli';fill:#ffffff;fill-opacity:1;stroke:none;stroke-width:0.999984;stroke-miterlimit:4;stroke-dasharray:none"
           xml:space="preserve"><tspan
             style="font-style:normal;font-variant:normal;font-weight:normal;font-stretch:normal;font-size:1.5px;font-family:'MV Boli';-inkscape-font-specification:'MV Boli';fill:#ffffff;stroke-width:0.999984;stroke-miterlimit:4;stroke-dasharray:none"
             y="8.1417294"
             x="4.7138062"
             id="tspan889"
             sodipodi:role="line">ify</tspan></text>
      </g>
    </g>
  </g>
</svg>
