<?xml version="1.0" encoding="UTF-8" standalone="no"?>
<svg
   xmlns:dc="http://purl.org/dc/elements/1.1/"
   xmlns:cc="http://creativecommons.org/ns#"
   xmlns:rdf="http://www.w3.org/1999/02/22-rdf-syntax-ns#"
   xmlns:svg="http://www.w3.org/2000/svg"
   xmlns="http://www.w3.org/2000/svg"
   xmlns:sodipodi="http://sodipodi.sourceforge.net/DTD/sodipodi-0.dtd"
   xmlns:inkscape="http://www.inkscape.org/namespaces/inkscape"
   enable-background="new 0 0 24 24"
   height="230.82462"
   viewBox="0 0 10.506565 10.819904"
   width="224.14006"
   version="1.1"
   id="svg193"
   sodipodi:docname="logopro.svg"
   inkscape:version="1.0 (4035a4fb49, 2020-05-01)"
   inkscape:export-filename="C:\Users\Ambro\Downloads\logoprolight.png"
   inkscape:export-xdpi="96"
   inkscape:export-ydpi="96">
  <metadata
     id="metadata199">
    <rdf:RDF>
      <cc:Work
         rdf:about="">
        <dc:format>image/svg+xml</dc:format>
        <dc:type
           rdf:resource="http://purl.org/dc/dcmitype/StillImage" />
        <dc:title></dc:title>
      </cc:Work>
    </rdf:RDF>
  </metadata>
  <defs
     id="defs197" />
  <sodipodi:namedview
     fit-margin-bottom="0"
     fit-margin-right="0"
     fit-margin-left="0"
     fit-margin-top="0"
     pagecolor="#ffffff"
     bordercolor="#666666"
     borderopacity="1"
     objecttolerance="10"
     gridtolerance="10"
     guidetolerance="10"
     inkscape:pageopacity="0"
     inkscape:pageshadow="2"
     inkscape:window-width="1368"
     inkscape:window-height="850"
     id="namedview195"
     showgrid="false"
     inkscape:document-rotation="0"
     inkscape:zoom="1.767767"
     inkscape:cx="201.72577"
     inkscape:cy="70.482102"
     inkscape:window-x="-6"
     inkscape:window-y="-6"
     inkscape:window-maximized="1"
     inkscape:current-layer="g877"
     inkscape:snap-object-midpoints="false"
     inkscape:snap-center="false" />
  <g
     id="g218"
     transform="matrix(0.4109463,0,0,0.4109463,-9.5333283e-4,0.95834258)">
    <g
       id="g165"
       fill="#e91e63">
      <path
         id="path159"
         d="m 6.6,16.48 1.23,3.66 C 6.06,20.71 4.84,21.08 4.75,21.07 3.97,21.04 3.21,20.53 2.95,19.75 2.62,18.73 3.16,17.63 4.18,17.29 Z" />
      <path
         id="path161"
         d="m 15.31,13.58 1.24,3.69 c -1.62,0.54 -3.37,1.12 -5.02,1.66 L 10.3,15.25 Z" />
      <path
         id="path163"
         d="m 24,13.38 c 0,0.82 -0.51,1.58 -1.32,1.84 0,0 -0.96,0.32 -2.44,0.81 l -1.23,-3.68 2.43,-0.81 c 1.02,-0.33 2.13,0.21 2.46,1.23 0.07,0.2 0.1,0.41 0.1,0.61 z" />
    </g>
    <path
       id="path167"
       fill="#00bcd4"
       d="m 3.75,7.97 1.23,3.66 C 3.21,12.2 1.99,12.57 1.9,12.56 1.12,12.53 0.36,12.02 0.1,11.24 -0.23,10.22 0.3,9.12 1.33,8.78 Z" />
    <path
       id="path169"
       fill="#00bcd4"
       d="m 12.45,5.07 1.24,3.69 C 12.08,9.3 10.33,9.88 8.68,10.42 L 7.45,6.74 Z" />
    <path
       id="path171"
       fill="#00bcd4"
       d="m 19.81,6.72 c 0,0 -0.95,0.32 -2.42,0.81 L 16.15,3.84 18.58,3.03 c 1.02,-0.33 2.13,0.21 2.47,1.23 0.32,1.02 -0.21,2.13 -1.24,2.46 z" />
    <path
       id="path173"
       fill="#689f38"
       d="M 17.39,7.53 C 16.36,7.87 15.08,8.3 13.69,8.76 L 12.45,5.07 16.15,3.84 Z" />
    <path
       id="path175"
       fill="#ffc107"
       d="m 16.15,3.84 -3.7,1.23 -0.84,-2.51 c -0.32,-1.03 0.21,-2.13 1.23,-2.46 1.03,-0.33 2.14,0.21 2.47,1.22 z" />
    <path
       id="path177"
       fill="#b71c1c"
       d="m 20.24,16.03 c -1.03,0.35 -2.31,0.78 -3.69,1.24 l -1.24,-3.69 3.7,-1.23 z" />
    <path
       id="path179"
       fill="#ffc107"
       d="m 19.01,12.35 -3.7,1.23 -1.62,-4.82 c 1.39,-0.46 2.67,-0.89 3.7,-1.23 z" />
    <path
       id="path181"
       fill="#ffc107"
       d="m 19.85,21 c -1.14,0.33 -2.14,-0.32 -2.46,-1.22 l -0.84,-2.51 c 1.38,-0.46 2.66,-0.89 3.69,-1.24 l 0.84,2.51 c 0.33,1.03 -0.2,2.13 -1.23,2.46 z" />
    <path
       id="path183"
       fill="#009688"
       d="m 8.68,10.42 c -1.35,0.44 -2.63,0.86 -3.7,1.21 L 3.75,7.97 7.45,6.74 Z" />
    <path
       id="path185"
       fill="#4caf50"
       d="M 7.45,6.74 3.75,7.97 2.91,5.46 C 2.59,4.44 3.12,3.33 4.14,3 5.17,2.67 6.28,3.21 6.61,4.23 Z" />
    <path
       id="path187"
       fill="#880e4f"
       d="m 11.53,18.93 c -1.35,0.44 -2.62,0.86 -3.7,1.21 L 6.6,16.48 10.3,15.25 Z" />
    <path
       id="path189"
       fill="#4caf50"
       d="M 10.3,15.25 6.6,16.48 4.98,11.63 c 1.07,-0.35 2.35,-0.77 3.7,-1.21 z" />
    <path
       id="path191"
       fill="#4caf50"
       d="M 11.14,23.91 C 10,24.24 9,23.59 8.68,22.69 L 7.83,20.14 c 1.08,-0.35 2.35,-0.77 3.7,-1.21 l 0.84,2.52 c 0.33,1.03 -0.2,2.13 -1.23,2.46 z" />
  </g>
  <g
     id="g896"
     transform="translate(2.743918,-5.6617644)"
     style="stroke-width:0.999984;stroke-miterlimit:4;stroke-dasharray:none">
    <g
       id="g910"
       transform="translate(-0.76875,0.3)"
       style="stroke-width:0.999984;stroke-miterlimit:4;stroke-dasharray:none">
      <g
         id="g877">
        <path
           inkscape:export-ydpi="96"
           inkscape:export-xdpi="96"
           id="path62"
           d="M 8.340406,7.0229084 C 8.025541,7.5008906 7.4233746,7.7206006 6.8599916,7.6944416 a 0.90339682,0.90339682 0 0 1 -0.116198,-0.02116 0.03803776,0.03803776 0 0 0 -0.03575,0.01964 c -0.117728,0.190097 -0.498729,0.335012 -0.758385,0.395745 a 1.9347388,1.9347388 0 0 0 0.327105,-0.556359 0.03371529,0.03371529 0 0 0 -0.02055,-0.0426 v 0 a 0.64059048,0.64059048 0 0 1 -0.136542,-0.05594 C 5.7465536,7.2514486 5.4075476,7.0175052 5.4410606,6.542097 A 1.0866697,1.0866697 0 0 1 5.9117136,5.7538297 2.2805367,2.2805367 0 0 1 7.6089206,5.4005341 C 8.365029,5.5641205 8.806307,6.3173163 8.340354,7.0229789 Z"
           style="fill:#8b0e51;fill-opacity:1;stroke:none;stroke-width:0.999984;stroke-miterlimit:4;stroke-dasharray:none" />
        <g
           style="font-style:normal;font-variant:normal;font-weight:normal;font-stretch:normal;font-size:1.5px;line-height:1.25;font-family:'MV Boli';-inkscape-font-specification:'MV Boli';fill:#ffffff;fill-opacity:1;stroke:none;stroke-width:0.999984;stroke-miterlimit:4;stroke-dasharray:none"
           id="text891"
           transform="rotate(-11.085347)"
           aria-label="ify">
          <path
             id="path879"
             style="font-style:normal;font-variant:normal;font-weight:normal;font-stretch:normal;font-size:1.5px;font-family:'MV Boli';-inkscape-font-specification:'MV Boli';fill:#ffffff;stroke-width:0.999984;stroke-miterlimit:4;stroke-dasharray:none"
             d="m 4.855896,8.0076962 q 0.010986,-0.04248 0.026367,-0.098877 0.015381,-0.056396 0.032227,-0.1193848 0.017578,-0.062988 0.035156,-0.1289062 0.017578,-0.065918 0.032959,-0.1281738 7.324e-4,-0.00293 0.00513,-0.00952 0.00439,-0.00732 0.012451,-0.013916 0.00806,-0.00732 0.020508,-0.012451 0.012451,-0.00513 0.029297,-0.00513 0.012451,0 0.02417,0.00293 0.011719,0.0022 0.020508,0.00732 0.00952,0.00513 0.014649,0.013916 0.00586,0.00806 0.00586,0.019043 0,0.0022 0,0.00513 0,0.0022 -7.324e-4,0.00439 l -0.020508,0.077637 q -0.034424,0.1303711 -0.070312,0.2614746 -0.035156,0.1311035 -0.068848,0.2629395 -0.00146,0.00439 -0.00439,0.010986 -0.00293,0.00659 -0.00806,0.013184 -0.00513,0.00659 -0.012451,0.010986 -0.00732,0.00439 -0.017578,0.00439 -0.019043,0 -0.033691,-0.00806 -0.014648,-0.00732 -0.024902,-0.019043 -0.010254,-0.011719 -0.015381,-0.025635 -0.00513,-0.013916 -0.00513,-0.026367 0,-0.00366 0,-0.00659 0,-0.00293 0.00146,-0.00659 z M 5.0470581,7.2496395 q 0.00366,-0.015381 0.013184,-0.037354 0.00952,-0.021973 0.033691,-0.039551 0.011719,-0.00659 0.028564,-0.011719 0.016846,-0.00586 0.02417,-0.00586 0.00732,0 0.014648,0.00513 0.00806,0.00513 0.013916,0.010986 0.00732,0.00732 0.013916,0.016113 0.018311,0.00146 0.023437,0.013184 0.00586,0.011719 0.00586,0.027832 0,0.011719 -0.0022,0.02124 -0.0022,0.00952 -0.00366,0.015381 -0.00439,0.015381 -0.016846,0.028564 -0.012451,0.012451 -0.028564,0.021973 -0.016113,0.00879 -0.033691,0.013916 -0.017578,0.00513 -0.030762,0.00513 -0.016846,0 -0.026367,-0.00586 -0.00879,-0.00586 -0.022705,-0.024902 -0.00806,-0.010986 -0.00952,-0.016846 -7.324e-4,-0.00659 -7.324e-4,-0.010986 0,-0.00806 7.324e-4,-0.013916 0.00146,-0.00659 0.00293,-0.012451 z" />
          <path
             sodipodi:nodetypes="ccccsccscccssccccscccccccccccccssccscccssccccscccccccsscccssccscccccccccsccccccc"
             id="path881"
             style="font-style:normal;font-variant:normal;font-weight:normal;font-stretch:normal;font-size:1.5px;font-family:'MV Boli';-inkscape-font-specification:'MV Boli';fill:#ffffff;stroke-width:0.999984;stroke-miterlimit:4;stroke-dasharray:none"
             d="m 5.3759155,8.2091122 c -0.012207,0 -0.023193,-0.00244 -0.032959,-0.00732 -0.00928,-0.00439 -0.017334,-0.010741 -0.02417,-0.019043 -0.00635,-0.00781 -0.011474,-0.016846 -0.015381,-0.0271 -0.00342,-0.010254 -0.00513,-0.02124 -0.00513,-0.032959 0,-0.0083 9.767e-4,-0.017334 0.00293,-0.0271 0.00195,-0.010254 0.00488,-0.022461 0.00879,-0.036621 0.00147,-0.00635 0.00366,-0.015868 0.00659,-0.028564 0.00293,-0.012695 0.00586,-0.0271 0.00879,-0.043213 0.00293,-0.016113 0.00586,-0.033203 0.00879,-0.05127 0.00342,-0.018067 0.00635,-0.035645 0.00879,-0.052734 0.00293,-0.01709 0.00512,-0.032959 0.00659,-0.047607 0.00147,-0.014649 0.0022,-0.026856 0.0022,-0.036621 0,-0.00635 -2.441e-4,-0.010497 -7.324e-4,-0.012451 -9.733e-4,-0.00732 -0.00634,-0.012207 -0.016113,-0.014648 -0.00928,-0.00293 -0.019531,-0.00586 -0.030762,-0.00879 -0.010742,-0.00342 -0.020752,-0.00855 -0.030029,-0.015381 -0.00879,-0.00732 -0.013184,-0.019043 -0.013184,-0.035156 0,-0.013183 0.00293,-0.025635 0.00879,-0.037354 0.00635,-0.011719 0.014403,-0.020019 0.02417,-0.024902 0.011231,-0.00537 0.023682,-0.0083 0.037354,-0.00879 0.01416,-4.883e-4 0.028076,-0.00195 0.041748,-0.00439 0.00781,-9.733e-4 0.013184,-0.00561 0.016113,-0.013916 0.00342,-0.0083 0.00611,-0.016357 0.00806,-0.02417 0.00586,-0.022461 0.012208,-0.046631 0.019043,-0.07251 0.00684,-0.026367 0.014648,-0.052979 0.023437,-0.079834 0.00928,-0.027344 0.019287,-0.053955 0.030029,-0.079834 0.011231,-0.025879 0.023682,-0.049804 0.037354,-0.071777 0.021973,-0.029785 0.04541,-0.057617 0.070312,-0.083496 0.025391,-0.025879 0.053521,-0.054845 0.081841,-0.073888 0.028809,-0.019531 0.057807,-0.028163 0.089545,-0.038905 0.032227,-0.011231 0.066406,-0.016846 0.102539,-0.016846 0.043457,0 0.078858,0.00732 0.1062012,0.021973 0.027344,0.014649 0.049561,0.036621 0.06665,0.065918 0.00391,0.00684 0.00659,0.013916 0.00806,0.02124 0.00147,0.00684 0.0022,0.013916 0.0022,0.02124 0,0.013183 -0.00195,0.025635 -0.00586,0.037354 -0.00342,0.011231 -0.0083,0.02124 -0.014648,0.030029 -0.00635,0.0083 -0.013915,0.014892 -0.022705,0.019775 -0.0083,0.00488 -0.01709,0.00732 -0.026367,0.00732 -0.013183,0 -0.023437,-0.00269 -0.030762,-0.00806 -0.00732,-0.00537 -0.013428,-0.011965 -0.018311,-0.019775 -0.00439,-0.00781 -0.00806,-0.016358 -0.010986,-0.025635 -0.00244,-0.00977 -0.00537,-0.018554 -0.00879,-0.026367 -0.00293,-0.00781 -0.00708,-0.014404 -0.012451,-0.019775 -0.00537,-0.00537 -0.012942,-0.00806 -0.022705,-0.00806 -0.00977,0 -0.020996,0.00122 -0.033691,0.00366 -0.012207,0.00244 -0.023926,0.00659 -0.035156,0.012451 -0.029785,0.015625 -0.057373,0.033203 -0.082764,0.052734 -0.025391,0.019043 -0.049072,0.043457 -0.071045,0.073242 -0.021485,0.029785 -0.041504,0.066162 -0.060059,0.1091309 -0.018067,0.042969 -0.034912,0.095947 -0.050537,0.1589356 -4.883e-4,9.733e-4 -9.75e-4,0.00219 -0.00146,0.00366 -4.883e-4,0.00147 -7.324e-4,0.00244 -7.324e-4,0.00293 0,9.733e-4 0.00195,0.00146 0.00586,0.00146 0.014649,0 0.028565,-7.333e-4 0.041748,-0.0022 0.013672,-0.00195 0.0271,-0.00391 0.040283,-0.00586 0.013183,-0.00244 0.026367,-0.00439 0.039551,-0.00586 0.013672,-0.00195 0.028076,-0.00293 0.043213,-0.00293 0.011231,0 0.021729,4.867e-4 0.031494,0.00146 0.00977,9.733e-4 0.018067,0.00317 0.024902,0.00659 0.00732,0.00293 0.012939,0.00732 0.016846,0.013184 0.00439,0.00586 0.00659,0.013672 0.00659,0.023437 0,0.00586 -9.767e-4,0.013184 -0.00293,0.021973 -0.00147,0.0083 -0.00415,0.016601 -0.00806,0.024902 -0.00342,0.00781 -0.00806,0.014893 -0.013916,0.02124 -0.00537,0.00635 -0.012209,0.010253 -0.020508,0.011719 -0.014649,0.00293 -0.029785,0.00537 -0.04541,0.00732 -0.015625,0.00147 -0.032715,0.00342 -0.05127,0.00586 -0.018555,0.00195 -0.039062,0.00513 -0.061523,0.00952 -0.022461,0.00391 -0.047607,0.00977 -0.075439,0.017578 -0.00879,0.033203 -0.015625,0.066162 -0.020508,0.098877 -0.00439,0.032227 -0.0083,0.064453 -0.011719,0.09668 -0.00342,0.032227 -0.00733,0.064697 -0.011719,0.097412 -0.00391,0.032227 -0.00977,0.064697 -0.017578,0.097412 -0.00147,0.00635 -0.00415,0.012694 -0.00806,0.019043 -0.00342,0.00635 -0.00781,0.011962 -0.013184,0.016846 -0.00488,0.00537 -0.010739,0.00952 -0.017578,0.012451 -0.00635,0.00342 -0.013183,0.00513 -0.020508,0.00513 z" />
          <path
             sodipodi:nodetypes="csccsscccsccscccccccccsccssscccccccccscccscccccssscccccccccscsscccccccsccccc"
             id="path883"
             style="font-style:normal;font-variant:normal;font-weight:normal;font-stretch:normal;font-size:1.5px;font-family:'MV Boli';-inkscape-font-specification:'MV Boli';fill:#ffffff;stroke-width:0.999984;stroke-miterlimit:4;stroke-dasharray:none"
             d="m 5.8285522,8.4801083 c -0.00732,0 -0.013916,-0.00195 -0.019775,-0.00586 -0.00586,-0.00391 -0.010987,-0.00903 -0.015381,-0.015381 -0.00391,-0.00635 -0.00708,-0.013427 -0.00952,-0.02124 -0.00244,-0.00732 -0.00366,-0.014648 -0.00366,-0.021973 0,-0.00928 0.00122,-0.017334 0.00366,-0.02417 0.00244,-0.00684 0.00537,-0.01294 0.00879,-0.018311 0.00391,-0.00488 0.00781,-0.00879 0.011719,-0.011719 0.00439,-0.00293 0.0083,-0.00512 0.011719,-0.00659 0.011719,-0.00293 0.025391,-0.0061 0.041016,-0.00952 0.015625,-0.00342 0.03247,-0.00855 0.050537,-0.015381 0.018555,-0.00635 0.038086,-0.014892 0.058594,-0.025635 0.020996,-0.010254 0.04248,-0.023926 0.064453,-0.041016 0.021973,-0.01709 0.044922,-0.03711 0.068848,-0.060059 0.024414,-0.022461 0.047851,-0.048828 0.070312,-0.079102 0.022461,-0.030762 0.043457,-0.065674 0.062988,-0.1047363 0.019531,-0.039551 0.035645,-0.084717 0.04834,-0.135498 -0.00928,0.010254 -0.02002,0.021973 -0.032227,0.035156 -0.011719,0.012695 -0.024414,0.025879 -0.038086,0.039551 -0.013672,0.013183 -0.027832,0.026123 -0.04248,0.038818 -0.014649,0.012207 -0.029297,0.023438 -0.043945,0.033691 -0.014649,0.00977 -0.029053,0.017578 -0.043213,0.023437 -0.013672,0.00586 -0.026611,0.00879 -0.038818,0.00879 -0.032715,0 -0.060547,-0.00732 -0.083496,-0.021973 -0.022949,-0.015137 -0.04419,-0.039795 -0.063721,-0.073975 -0.00537,-0.00977 -0.00952,-0.022461 -0.012451,-0.038086 -0.00293,-0.015625 -0.00439,-0.031494 -0.00439,-0.047607 0,-0.026367 0.00122,-0.052002 0.00366,-0.076904 0.00244,-0.024902 0.0061,-0.050781 0.010986,-0.077637 0.00488,-0.026855 0.010495,-0.054932 0.016846,-0.084229 0.00684,-0.029785 0.014404,-0.0625 0.022705,-0.098145 4.883e-4,-0.00928 0.00122,-0.018066 0.0022,-0.026367 9.733e-4,-0.00684 0.00146,-0.013428 0.00146,-0.019775 4.883e-4,-0.00635 9.749e-4,-0.010253 0.00146,-0.011719 9.733e-4,-0.0083 0.00366,-0.016113 0.00806,-0.023437 0.00488,-0.00732 0.010495,-0.013672 0.016846,-0.019043 0.00684,-0.00537 0.013916,-0.00952 0.02124,-0.012451 0.00781,-0.00293 0.015381,-0.00439 0.022705,-0.00439 0.010254,0 0.020508,9.767e-4 0.030762,0.00293 0.010254,0.00147 0.018311,0.00513 0.02417,0.010986 0.0083,0.00879 0.01155,0.017594 0.015457,0.031754 0.00439,0.01416 0.00659,0.026855 0.00659,0.038086 0,0.00439 6.577e-4,0.015853 -0.00374,0.029037 -0.00391,0.013183 -0.00977,0.026855 -0.017578,0.041016 -0.011719,0.043945 -0.02124,0.081299 -0.028564,0.1120606 -0.00732,0.030273 -0.013183,0.055664 -0.017578,0.076172 -0.00391,0.020019 -0.00684,0.036133 -0.00879,0.04834 -0.00147,0.011719 -0.0022,0.020752 -0.0022,0.0271 0,0.026367 0.00439,0.047363 0.013184,0.062988 0.00879,0.015625 0.019532,0.023437 0.032227,0.023437 0.00732,0 0.015625,-0.00146 0.024902,-0.00439 0.00977,-0.00293 0.020019,-0.00781 0.030762,-0.014648 0.041015,-0.025391 0.076172,-0.052979 0.1054688,-0.082764 0.029785,-0.030273 0.055176,-0.063476 0.076172,-0.099609 0.021485,-0.036621 0.039795,-0.07666 0.054932,-0.1201172 0.015625,-0.043457 0.029785,-0.091309 0.04248,-0.1435547 9.733e-4,-0.00342 0.00317,-0.00684 0.00659,-0.010254 0.00391,-0.00342 0.0083,-0.00635 0.013184,-0.00879 0.00537,-0.00244 0.010989,-0.00439 0.016846,-0.00586 0.00586,-0.00195 0.011475,-0.00293 0.016846,-0.00293 0.025879,0 0.045654,0.00708 0.059326,0.02124 0.01416,0.013672 0.02124,0.032227 0.02124,0.055664 0,0.00879 -0.0022,0.022949 -0.00659,0.04248 -0.00439,0.019531 -0.00952,0.040283 -0.015381,0.062256 -0.00586,0.021485 -0.011964,0.042237 -0.018311,0.062256 -0.00586,0.019531 -0.010499,0.033936 -0.013916,0.043213 L 6.429872,7.8275274 c -0.016113,0.045899 -0.030762,0.088135 -0.043945,0.126709 -0.012695,0.038574 -0.026367,0.074707 -0.041016,0.1083984 -0.014649,0.033203 -0.03125,0.064697 -0.049805,0.094482 -0.018067,0.029785 -0.040039,0.058838 -0.065918,0.087158 -0.025879,0.02832 -0.05664,0.05664 -0.092285,0.084961 -0.035645,0.028809 -0.078125,0.058594 -0.1274415,0.089355 -0.030273,0.018067 -0.060058,0.032715 -0.089355,0.043945 -0.028809,0.011719 -0.059326,0.017578 -0.091553,0.017578 z" />
        </g>
      </g>
    </g>
  </g>
</svg>
